<?xml version="1.0" encoding="utf-8"?>
<!-- Generator: Adobe Illustrator 25.2.1, SVG Export Plug-In . SVG Version: 6.00 Build 0)  -->
<svg version="1.1" id="Capa_1" xmlns="http://www.w3.org/2000/svg" xmlns:xlink="http://www.w3.org/1999/xlink" x="0px" y="0px"
	 viewBox="0 0 700 500" style="enable-background:new 0 0 700 500;" xml:space="preserve">
<style type="text/css">
	.st0{fill-rule:evenodd;clip-rule:evenodd;fill:#06D13B;}
	
		.st1{fill-rule:evenodd;clip-rule:evenodd;fill:#094264;stroke:#094264;stroke-width:0.58;stroke-linecap:round;stroke-linejoin:round;}
	.st2{fill:#094264;stroke:#094264;stroke-width:0.58;stroke-linecap:round;stroke-linejoin:round;}
</style>
<rect class="st0" width="700" height="500"/>
<g>
	<path class="st1" d="M328.7,464C220,453.2,135,361.5,135,250S220,46.7,328.7,36V62c-94.4,10.6-167.9,90.7-167.9,188
		s73.4,177.4,167.9,188V464z M371.3,36.1C480,46.7,565,138.5,565,250s-85,203.2-193.7,214v-26c94.4-10.6,167.9-90.7,167.9-188
		S465.8,72.6,371.3,62V36.1L371.3,36.1z"/>
	<path class="st2" d="M328.7,464C220,453.2,135,361.5,135,250S220,46.7,328.7,36V62c-94.4,10.6-167.9,90.7-167.9,188
		s73.4,177.4,167.9,188V464z M371.3,36.1C480,46.7,565,138.5,565,250s-85,203.2-193.7,214v-26c94.4-10.6,167.9-90.7,167.9-188
		S465.8,72.6,371.3,62V36.1L371.3,36.1z"/>
	<path class="st1" d="M451.8,187.8L422.2,165c-53.9-86.9-37.2-96.3-84.6-9.8l13.4,11.5c30.3-57.4,23-54,53-1.9c3.1,5.4,5,8.2,9.9,12
		l28.1,21.4c5.8,4.4,8.4,6.5,11.8,12.8c32.1,59.8,31.9,47.3-42.7,47.1l-9.9-20.9l-28.8-22l-8.8-25.6l-49.4-40.9
		c-9-7.5-7.4-7.6-15,1.3L257,199.9l-25.5,15.8l-29.6,47.1v12.4l296.3-0.1v-12.4c0-5.2-2-7.4-4.7-11.9
		c-10.2-16.8-20.3-33.5-30.5-50.3C460.2,195.4,456.4,191.1,451.8,187.8L451.8,187.8z"/>
	<polygon class="st1" points="213.1,299.6 486.9,299.6 486.9,320.1 213.1,320.1 213.1,299.6 	"/>
	<polygon class="st1" points="229.9,344.7 470.1,344.7 470.1,365.2 229.9,365.2 229.9,344.7 	"/>
	<polygon class="st1" points="284.5,384.6 415.5,384.6 415.5,405.1 284.5,405.1 284.5,384.6 	"/>
</g>
</svg>
