<?xml version="1.0" encoding="utf-8"?>
<!-- Generator: Adobe Illustrator 25.2.1, SVG Export Plug-In . SVG Version: 6.00 Build 0)  -->
<svg version="1.1" id="Capa_1" xmlns="http://www.w3.org/2000/svg" xmlns:xlink="http://www.w3.org/1999/xlink" x="0px" y="0px"
	 viewBox="0 0 700 500" style="enable-background:new 0 0 700 500;" xml:space="preserve">
<style type="text/css">
	.st0{fill-rule:evenodd;clip-rule:evenodd;fill:#06D13B;}
	
		.st1{fill-rule:evenodd;clip-rule:evenodd;fill:#094264;stroke:#094264;stroke-width:0.58;stroke-linecap:round;stroke-linejoin:round;}
	.st2{fill:#094264;stroke:#094264;stroke-width:0.58;stroke-linecap:round;stroke-linejoin:round;}
</style>
<rect class="st0" width="700" height="500"/>
<g>
	<path class="st1" d="M328.7,464C220,453.2,135,361.5,135,250S220,46.7,328.7,36V62c-94.4,10.6-167.9,90.7-167.9,188
		s73.4,177.4,167.9,188V464z M371.3,36.1C480,46.7,565,138.5,565,250s-85,203.2-193.7,213.9V438c94.4-10.6,167.9-90.7,167.9-188
		S465.8,72.6,371.3,62V36.1L371.3,36.1z"/>
	<path class="st2" d="M328.7,464C220,453.2,135,361.5,135,250S220,46.7,328.7,36V62c-94.4,10.6-167.9,90.7-167.9,188
		s73.4,177.4,167.9,188V464z M371.3,36.1C480,46.7,565,138.5,565,250s-85,203.2-193.7,213.9V438c94.4-10.6,167.9-90.7,167.9-188
		S465.8,72.6,371.3,62V36.1L371.3,36.1z"/>
	<path class="st1" d="M347.1,284.1c15.9,0,28.7-12.9,28.7-28.7s-12.9-28.7-28.7-28.7c-15.9,0-28.7,12.9-28.7,28.7
		S331.2,284.1,347.1,284.1C347.1,284.1,347.1,284.1,347.1,284.1z"/>
	<path class="st1" d="M339,205.2c-6.9,1.3-13.5,4-19.3,8.2l-52-80.6c20-12.2,50.2-20.4,73.6-21.9c5.6-0.4,11.2-0.4,16.9-0.1
		c23.5,1.3,54.3,9.6,74.5,21.9l-52,80.6c-6.5-4.7-14.1-7.6-22.1-8.6C352,204,345.5,204.2,339,205.2L339,205.2z"/>
	<path class="st1" d="M286.4,383.4l42.1-86.2c-20.1-5.2-34.2-23.3-34.2-44.1c0-1.4,0.1-2.8,0.2-4.1l-94,5.7
		C201.4,305,239.9,363.2,286.4,383.4L286.4,383.4z"/>
	<path class="st1" d="M410.9,383.4l-42.1-86.2c20.1-5.2,34.2-23.3,34.2-44.1c0-1.4-0.1-2.8-0.2-4.1l94,5.7
		C495.9,305,457.3,363.2,410.9,383.4L410.9,383.4z"/>
</g>
</svg>
