<?xml version="1.0" encoding="utf-8"?>
<!-- Generator: Adobe Illustrator 25.2.1, SVG Export Plug-In . SVG Version: 6.00 Build 0)  -->
<svg version="1.1" id="Capa_1" xmlns="http://www.w3.org/2000/svg" xmlns:xlink="http://www.w3.org/1999/xlink" x="0px" y="0px"
	 viewBox="0 0 700 500" style="enable-background:new 0 0 700 500;" xml:space="preserve">
<style type="text/css">
	.st0{fill-rule:evenodd;clip-rule:evenodd;fill:#06D13B;}
	
		.st1{fill-rule:evenodd;clip-rule:evenodd;fill:#094264;stroke:#094264;stroke-width:0.58;stroke-linecap:round;stroke-linejoin:round;}
	.st2{fill:#094264;stroke:#094264;stroke-width:0.58;stroke-linecap:round;stroke-linejoin:round;}
</style>
<rect class="st0" width="700" height="500"/>
<g>
	<path class="st1" d="M328.7,464C220,453.2,135,361.5,135,250S220,46.7,328.7,36V62c-94.4,10.6-167.9,90.7-167.9,188
		s73.4,177.4,167.9,188V464z M371.3,36.1C480,46.7,565,138.5,565,250s-84.9,203.2-193.7,213.9V438c94.4-10.6,167.9-90.7,167.9-188
		S465.8,72.6,371.3,62V36.1L371.3,36.1z"/>
	<path class="st2" d="M328.7,464C220,453.2,135,361.5,135,250S220,46.7,328.7,36V62c-94.4,10.6-167.9,90.7-167.9,188
		s73.4,177.4,167.9,188V464z M371.3,36.1C480,46.7,565,138.5,565,250s-84.9,203.2-193.7,213.9V438c94.4-10.6,167.9-90.7,167.9-188
		S465.8,72.6,371.3,62V36.1L371.3,36.1z"/>
	<path class="st1" d="M353.2,274.7c-33.1-1.1-13.9-78-2.4-111.3c4.5-13.1,3.3-13.4,7.6-0.2C369.2,196.9,386.4,275.8,353.2,274.7
		L353.2,274.7z M351.4,115.2c-15.6,39.5-65.2,177.6,0.4,179.7s21.6-139.1,7.7-179.4C355,102.5,356.5,102.5,351.4,115.2L351.4,115.2z
		"/>
	<path class="st1" d="M317.8,312c-23.9-32.6-79.5-42.6-110.4-75c-18.9-19.8-16.8-16.2-16.6,10.8c0.2,28.8,6.9,52.8,17.5,72.4
		c14.3,26.5,39.6,50,66.4,63.4c13.5,6.9,28.5,10.6,43.7,10.8c16.5,0.1,19.1-0.1,20.1-17C339.7,354.3,331,329.9,317.8,312L317.8,312z
		"/>
	<path class="st1" d="M382.2,312c23.9-32.6,79.5-42.6,110.4-75c18.9-19.8,16.8-16.2,16.6,10.8c-0.2,28.8-6.9,52.8-17.5,72.4
		c-14.3,26.5-39.6,50-66.4,63.4c-13.5,6.9-28.5,10.6-43.7,10.8c-16.5,0.1-19.1-0.1-20.1-17C360.3,354.3,369,329.9,382.2,312
		L382.2,312z"/>
</g>
</svg>
