<?xml version="1.0" encoding="utf-8"?>
<!-- Generator: Adobe Illustrator 25.2.1, SVG Export Plug-In . SVG Version: 6.00 Build 0)  -->
<svg version="1.1" id="Capa_1" xmlns="http://www.w3.org/2000/svg" xmlns:xlink="http://www.w3.org/1999/xlink" x="0px" y="0px"
	 viewBox="0 0 700 500" style="enable-background:new 0 0 700 500;" xml:space="preserve">
<style type="text/css">
	.st0{fill-rule:evenodd;clip-rule:evenodd;fill:#06D13B;}
	.st1{fill:#094264;stroke:#094264;stroke-width:0.22;stroke-linecap:round;stroke-linejoin:round;}
	
		.st2{fill-rule:evenodd;clip-rule:evenodd;fill:#094264;stroke:#094264;stroke-width:0.58;stroke-linecap:round;stroke-linejoin:round;}
	
		.st3{fill-rule:evenodd;clip-rule:evenodd;fill:#094264;stroke:#094264;stroke-width:0.57;stroke-linecap:round;stroke-linejoin:round;}
	
		.st4{fill-rule:evenodd;clip-rule:evenodd;fill:#094264;stroke:#094264;stroke-width:0.56;stroke-linecap:round;stroke-linejoin:round;}
	
		.st5{fill-rule:evenodd;clip-rule:evenodd;fill:#094264;stroke:#094264;stroke-width:0.6;stroke-linecap:round;stroke-linejoin:round;}
</style>
<rect class="st0" width="700" height="500"/>
<g>
	<path class="st1" d="M328.7,464C220,453.2,135,361.5,135,250S220,46.7,328.7,36V62c-94.4,10.6-167.9,90.7-167.9,188
		s73.4,177.4,167.9,188V464z M371.3,36.1C480,46.7,565,138.5,565,250s-85,203.2-193.7,213.9V438c94.4-10.6,167.9-90.7,167.9-188
		S465.8,72.6,371.3,62V36.1L371.3,36.1z"/>
	<path class="st2" d="M280.6,234.1h189.1c2,28-30.9,38-31.6,47.3c-0.7,9.3,3.9,12.2-3.4,19l-47,21.3c-3.7,1.7-3.4,1.7-6.6-0.8
		l-19.9-16.3c-3.3-2.7-3.6-2.4-6.3,0.7l-23.5,27.5c-2.4,2.8-2.4,2.7-6.1,2.7l-41.4,0.1c-2.9,0-2.9,0.4-3.4-2.5l-3.7-20
		c-0.7-3.8-0.2-3.8-4.1-4.5c-4.9-0.9-8.1-2-12.5-3c-5.1-1.6-5.2-0.9-1.3-5.7c6.2-7.6,10.3-14.9,16.5-22.5c2.7-3.3,2.2-4.2,2.1-8.5
		l-1.3-30.7C276.1,233.4,276,234.1,280.6,234.1L280.6,234.1z M320.8,252.8c10.2,0,18.6,6.8,18.6,15.2c0,8.4-8.3,15.2-18.6,15.2
		s-18.6-6.8-18.6-15.2S310.5,252.8,320.8,252.8L320.8,252.8z"/>
	<path class="st3" d="M285.4,370.7c2.8,9.6,5.5,19.2,8.2,28.9c1.2,4.1,1.2,3.1,5.2,1.9l74.1-22.8c3.7-1.1,3.3-1.1,4-4.9l4.2-23.7
		l-16.6-12.3c-3.4-2.5-3-3.1-5.8,0.1c-7.8,9.2-15.6,18.5-23.4,27.7c-3.1,3.6-3.1,3.4-7.9,3l-37.6-2.9
		C283.4,365.2,283.6,364.4,285.4,370.7L285.4,370.7z"/>
	<path class="st3" d="M279.6,166.4c58.2,1.1,116.4-1.4,174.6-0.3c6.7,0.1,9.7-0.2,9-5.1c-1.4-9.5-5.6-18.8-15.3-30.5
		c-18.8-22.6-49.2-32.3-77.8-33.1c-22.6-0.6-44.6,5.1-62.7,19.2c-16,12.5-25.3,28.2-30.2,38.6C272.8,164.6,269.8,166.3,279.6,166.4
		L279.6,166.4z"/>
	<polygon class="st4" points="230.2,192.5 255.5,162.5 235.3,145.5 230.2,192.5 	"/>
	<polygon class="st5" points="256.9,188.6 466.9,188.6 466.9,209.2 243.8,209.2 256.9,188.6 	"/>
</g>
</svg>
