<svg id="Capa_1" data-name="Capa 1" xmlns="http://www.w3.org/2000/svg" viewBox="0 0 49 39"><title>casa-svg</title><path d="M7.13,44.49a5.45,5.45,0,0,1-1.07-.06,2.23,2.23,0,0,1-1.76-2c0-.37,0-.75,0-1.12,0-4.52,0-9,0-13.56,0-2.5,0-2.35,2.24-3.67L23.59,13.85c1.55-.93,1.5-.8,3.05.12l15,8.85c1.3.77,2.6,1.55,3.92,2.3a.75.75,0,0,1,.42.76c0,5.41,0,10.82,0,16.23a2.43,2.43,0,0,1-2.47,2.39c-34.72-.47-6.7,0-36.35,0Z" transform="translate(-0.5 -5.5)" fill="#003d61" fill-rule="evenodd"/><path d="M42.55,14.33c0,.55.35.71.77.94,1.89,1,3.77,2.1,5.65,3.15a.9.9,0,0,1,.34,1.36c-.6.77-1.24,1.51-1.89,2.25a1.07,1.07,0,0,1-1.34.09q-9.27-5.49-18.57-11c-2.46-1.45-2.17-1.7-4.56-.28L12.7,17,4.05,22.09a1.11,1.11,0,0,1-1.71-.26c-.52-.62-1-1.24-1.55-1.87a.91.91,0,0,1,.28-1.51l13.54-7.67c2.33-1.31,4.65-2.64,7-4,2.88-1.63,4.09-1.59,6.8,0l4.44,2.61c.85.5,1.64,1.07,2.5,1.55a1.28,1.28,0,0,0,.63.24c.15,0,.24-.18.26-.56V6.59a1,1,0,0,1,1.11-1.08h4.08a1,1,0,0,1,1.14,1.11c0,2.58.05,5.15,0,7.72Z" transform="translate(-0.5 -5.5)" fill="#003d61" fill-rule="evenodd"/></svg>