<svg id="Capa_1" data-name="Capa 1" xmlns="http://www.w3.org/2000/svg" viewBox="0 0 430.58 428.48"><title>glaciares</title><path d="M203.66,439C95,428.23,10,336.52,10,225S95,21.77,203.66,11.05V37C109.22,47.59,35.79,127.73,35.79,225s73.43,177.4,167.87,188V439Zm42.67-427.9C355.05,21.76,440,113.49,440,225S355.05,428.23,246.34,439V413c94.43-10.61,167.87-90.74,167.87-188S340.77,47.6,246.33,37V11.05Z" transform="translate(-9.71 -10.76)" fill="#094264" stroke="#094264" stroke-linecap="round" stroke-linejoin="round" stroke-width="0.58" fill-rule="evenodd"/><path d="M203.66,439C95,428.23,10,336.52,10,225S95,21.77,203.66,11.05V37C109.22,47.59,35.79,127.73,35.79,225s73.43,177.4,167.87,188V439Zm42.67-427.9C355.05,21.76,440,113.49,440,225S355.05,428.23,246.34,439V413c94.43-10.61,167.87-90.74,167.87-188S340.77,47.6,246.33,37V11.05Z" transform="translate(-9.71 -10.76)" fill="#094264" stroke="#094264" stroke-linecap="round" stroke-linejoin="round" stroke-width="0.58"/><path d="M326.75,162.86,297.21,140c-53.92-86.9-37.22-96.27-84.63-9.75L226,141.77c30.29-57.4,23-54,53-1.86,3.13,5.43,4.95,8.24,9.89,12L317,173.33c5.76,4.39,8.38,6.51,11.78,12.84,32.08,59.8,31.93,47.27-42.72,47.08l-9.9-20.88-28.84-22-8.78-25.6-49.36-40.95c-9-7.48-7.44-7.6-15,1.33L132,174.93l-25.51,15.81L76.84,237.83V250.2l296.34-.13V237.62c0-5.2-2-7.38-4.67-11.86Q353.28,200.61,338,175.43a38.71,38.71,0,0,0-11.28-12.57Z" transform="translate(-9.71 -10.76)" fill="#094264" stroke="#094264" stroke-linecap="round" stroke-linejoin="round" stroke-width="0.58" fill-rule="evenodd"/><polygon points="78.37 263.83 352.21 263.83 352.21 284.39 78.37 284.39 78.37 263.83 78.37 263.83" fill="#094264" stroke="#094264" stroke-linecap="round" stroke-linejoin="round" stroke-width="0.58" fill-rule="evenodd"/><polygon points="95.17 308.94 335.4 308.94 335.4 329.49 95.17 329.49 95.17 308.94 95.17 308.94" fill="#094264" stroke="#094264" stroke-linecap="round" stroke-linejoin="round" stroke-width="0.58" fill-rule="evenodd"/><polygon points="149.83 348.82 280.75 348.82 280.75 369.38 149.83 369.38 149.83 348.82 149.83 348.82" fill="#094264" stroke="#094264" stroke-linecap="round" stroke-linejoin="round" stroke-width="0.58" fill-rule="evenodd"/></svg>