<svg id="Capa_1" data-name="Capa 1" xmlns="http://www.w3.org/2000/svg" viewBox="0 0 430.58 428.48"><title>no-nuclear</title><path d="M203.66,439C95,428.23,10,336.52,10,225S95,21.77,203.66,11.05V37C109.22,47.59,35.79,127.73,35.78,225s73.44,177.4,167.88,188V439Zm42.67-427.9C355,21.76,440,113.48,440,225S355.05,428.23,246.34,438.94V413c94.43-10.61,167.87-90.74,167.87-188S340.77,47.6,246.33,37V11.05Z" transform="translate(-9.71 -10.76)" fill="#094264" stroke="#094264" stroke-linecap="round" stroke-linejoin="round" stroke-width="0.58" fill-rule="evenodd"/><path d="M203.66,439C95,428.23,10,336.52,10,225S95,21.77,203.66,11.05V37C109.22,47.59,35.78,127.73,35.78,225s73.44,177.4,167.88,188V439Zm42.67-427.9C355,21.76,440,113.48,440,225S355.05,428.23,246.34,438.94V413c94.43-10.61,167.87-90.74,167.87-188S340.77,47.6,246.33,37V11.05Z" transform="translate(-9.71 -10.76)" fill="#094264" stroke="#094264" stroke-linecap="round" stroke-linejoin="round" stroke-width="0.58"/><path d="M222.11,259.14a28.73,28.73,0,1,0-28.74-28.72,28.73,28.73,0,0,0,28.74,28.72Z" transform="translate(-9.71 -10.76)" fill="#094264" stroke="#094264" stroke-linecap="round" stroke-linejoin="round" stroke-width="0.58" fill-rule="evenodd"/><path d="M214,180.26a47.78,47.78,0,0,0-19.27,8.16l-52-80.63c19.95-12.19,50.21-20.36,73.56-21.86a141.38,141.38,0,0,1,16.85-.06c23.47,1.35,54.28,9.57,74.49,21.92l-52,80.63a47.75,47.75,0,0,0-22.12-8.59,67.73,67.73,0,0,0-19.49.43Z" transform="translate(-9.71 -10.76)" fill="#094264" stroke="#094264" stroke-linecap="round" stroke-linejoin="round" stroke-width="0.58" fill-rule="evenodd"/><path d="M161.37,358.43l42.14-86.19a45.51,45.51,0,0,1-34.17-44.06c0-1.4.06-2.78.18-4.15l-94,5.67c.84,50.36,39.4,108.48,85.84,128.73Z" transform="translate(-9.71 -10.76)" fill="#094264" stroke="#094264" stroke-linecap="round" stroke-linejoin="round" stroke-width="0.58" fill-rule="evenodd"/><path d="M285.88,358.43l-42.14-86.19a45.51,45.51,0,0,0,34.17-44.06c0-1.4-.06-2.78-.18-4.15l94,5.67c-.84,50.36-39.4,108.48-85.84,128.73Z" transform="translate(-9.71 -10.76)" fill="#094264" stroke="#094264" stroke-linecap="round" stroke-linejoin="round" stroke-width="0.58" fill-rule="evenodd"/></svg>