<svg id="Capa_1" data-name="Capa 1" xmlns="http://www.w3.org/2000/svg" viewBox="0 0 49 39"><title>sobre-svg</title><path d="M4.33,5.5H45.67c2.49,0,1.75.56.59,1.63C40.4,12.55,34.73,18.31,29,23.87c-.29.29-.59.56-.88.82-2.54,2.22-4.11,1.86-6.31-.1-.26-.23-.51-.47-.77-.72C15.27,18.31,9.6,12.55,3.74,7.13,2.58,6.06,1.84,5.5,4.33,5.5Zm42.31,39c.79,0,.86-.35.22-1-5.4-5.07-9.49-9.2-14.4-14-1.13-1.09-2-1.78-3.25-.83-.49.38-1,.7-1.55,1.17-2.12,1.5-3.19,1.5-5.31,0-.6-.47-1.07-.79-1.56-1.17-1.22-.95-2.13-.26-3.25.83-4.91,4.76-9,8.89-14.4,14-.64.61-.57,1,.22,1Zm-31-17.32C11,31.52,7.2,35.32,2.48,39.88c-1.86,1.8-2,1.37-2-.39V10c0-1.59.09-2,1.41-.75,4.76,4.54,9.31,8.8,13.77,13.33,1.8,1.82,1.44,3.11-.09,4.57Zm18.8,0c4.56,4.34,8.4,8.14,13.12,12.7,1.86,1.8,2,1.37,2-.39V10c0-1.59-.09-2-1.41-.75-4.76,4.54-9.31,8.8-13.77,13.33-1.8,1.82-1.44,3.11.09,4.57Z" transform="translate(-0.5 -5.5)" fill="#003d61" fill-rule="evenodd"/></svg>