<svg id="Capa_1" data-name="Capa 1" xmlns="http://www.w3.org/2000/svg" viewBox="0 0 51.76 39"><title>telefono-svg</title><path d="M46.69,37.23c0-5.88-2.69-10.3-7.33-13.6C37,22,35,20.32,34.41,17.3a2.19,2.19,0,0,0-1.5-1.24c-1.29-.26-2.58-.46-3.87-.59a39.05,39.05,0,0,0-7.72,0,38.55,38.55,0,0,0-4.23.63,2.19,2.19,0,0,0-1.5,1.24,8.21,8.21,0,0,1-.47,1.59c-.88,2.06-2.6,3.41-4.48,4.74C6,26.93,3.27,31.35,3.31,37.23c0,1.71,0,3.42,0,5.13,0,2,0,2.1,2,2.11,13.2,0,26.14,0,39.34,0,2,0,2-.06,2-2.11C46.7,40.65,46.68,38.94,46.69,37.23ZM25,40.94a9,9,0,0,1-9.15-9.22c.05-4,2-6.9,4.84-8.27a10.26,10.26,0,0,1,9.69.61,9,9,0,0,1,3.77,7.66A9,9,0,0,1,25,40.94Z" transform="translate(0.88 -5.5)" fill="#003d61" fill-rule="evenodd"/><path d="M30.33,11.05a36.78,36.78,0,0,1,5.26,1,6.59,6.59,0,0,1,5.24,5.47c.18,1,.58,1.39,1.59,1.38,2.36,0,4.73,0,7.09,0,1.27,0,1.47-.59,1.33-1.7A10.51,10.51,0,0,0,49,12.44C45.13,6.93,37,6,30.39,5.64a108.09,108.09,0,0,0-10.95,0C12.91,6,4.84,7,1,12.44A10.51,10.51,0,0,0-.84,17.29C-1,18.4-.78,19,.49,19c2.36,0,4.73-.07,7.09,0,1,0,1.41-.37,1.59-1.38a6.59,6.59,0,0,1,5.24-5.47,37.39,37.39,0,0,1,4.86-1,44.5,44.5,0,0,1,11.06,0Z" transform="translate(0.88 -5.5)" fill="#003d61" fill-rule="evenodd"/><path d="M28.57,35.31a5.05,5.05,0,1,1-3.48-8.65,5,5,0,0,1,4.27,2.56,5.11,5.11,0,0,1-.79,6.09Z" transform="translate(0.88 -5.5)" fill="#003d61" fill-rule="evenodd"/></svg>