<svg id="Capa_1" data-name="Capa 1" xmlns="http://www.w3.org/2000/svg" viewBox="0 0 430.58 428.47"><title>transgenico</title><path d="M203.66,439C95,428.23,10,336.52,10,225S95,21.77,203.66,11.05V37C109.22,47.59,35.79,127.73,35.79,225S109.23,402.4,203.66,413V439Zm42.67-427.9C355.05,21.76,440,113.48,440,225S355.06,428.23,246.34,438.94V413c94.43-10.61,167.87-90.73,167.88-188S340.77,47.6,246.33,37V11.05Z" transform="translate(-9.71 -10.76)" fill="#094264" stroke="#094264" stroke-linecap="round" stroke-linejoin="round" stroke-width="0.58" fill-rule="evenodd"/><path d="M203.66,439C95,428.23,10,336.52,10,225S95,21.77,203.66,11.05V37C109.22,47.59,35.79,127.73,35.79,225S109.23,402.4,203.66,413V439Zm42.67-427.9C355.05,21.76,440,113.48,440,225S355.06,428.23,246.34,438.94V413c94.43-10.61,167.88-90.73,167.88-188S340.77,47.6,246.33,37V11.05Z" transform="translate(-9.71 -10.76)" fill="#094264" stroke="#094264" stroke-linecap="round" stroke-linejoin="round" stroke-width="0.58"/><path d="M228.23,249.73c-33.13-1.1-13.94-78-2.38-111.3,4.54-13.08,3.3-13.43,7.56-.16,10.81,33.68,28,112.56-5.18,111.46Zm-1.81-159.5c-15.56,39.49-65.25,177.62.36,179.65s21.6-139.08,7.68-179.43c-4.45-12.9-3-12.94-8-.22Z" transform="translate(-9.71 -10.76)" fill="#094264" stroke="#094264" stroke-linecap="round" stroke-linejoin="round" stroke-width="0.58" fill-rule="evenodd"/><path d="M192.81,287c-23.89-32.56-79.48-42.64-110.42-75-18.91-19.78-16.78-16.16-16.64,10.75.16,28.79,6.89,52.76,17.51,72.36,14.32,26.45,39.57,50,66.44,63.4a98.76,98.76,0,0,0,43.66,10.78c16.52.14,19.14-.12,20.09-17,1.29-23-7.48-47.32-20.64-65.27Z" transform="translate(-9.71 -10.76)" fill="#094264" stroke="#094264" stroke-linecap="round" stroke-linejoin="round" stroke-width="0.58" fill-rule="evenodd"/><path d="M257.19,287c23.89-32.56,79.48-42.64,110.42-75,18.91-19.78,16.78-16.16,16.64,10.75-.16,28.79-6.89,52.76-17.51,72.36-14.32,26.45-39.57,50-66.44,63.4a98.76,98.76,0,0,1-43.66,10.78c-16.52.14-19.14-.12-20.09-17-1.29-23,7.48-47.32,20.64-65.27Z" transform="translate(-9.71 -10.76)" fill="#094264" stroke="#094264" stroke-linecap="round" stroke-linejoin="round" stroke-width="0.58" fill-rule="evenodd"/></svg>