<svg id="Capa_1" data-name="Capa 1" xmlns="http://www.w3.org/2000/svg" viewBox="0 0 50 50"><title>twitter-svg-ultimo</title><path d="M37.66,39.72,22.82,18.47c-2-2.82-3.94-5.65-5.93-8.46-.2-.28-.53-.64-.81-.65-1.18-.06-2.35,0-3.62,0-.73,0-.8-.13-.38.52l.24.37.13.2L28.89,34l4.32,6.17c.21.3.42.65.85.64,1.18,0,2.36,0,3.65,0,.74,0,.67,0,.27-.56C37.87,40,37.77,39.87,37.66,39.72Z" fill="#003d61" fill-rule="evenodd"/><path d="M40.11,0H9.89C4.45,0,0,4.84,0,10.75v28.5C0,45.16,4.45,50,9.89,50H40.11C45.55,50,50,45.16,50,39.25V10.75C50,4.84,45.55,0,40.11,0Zm1.73,43c-3,0-5.94,0-8.9,0a1.34,1.34,0,0,1-1.24-.7C28.89,38.2,26.05,34.09,23.22,30c-.19-.28-.4-.55-.67-.91l-3.27,3.77c-2.72,3.17-5.44,6.33-8.13,9.51a1.93,1.93,0,0,1-1.5.67c-.49,0-1,0-1.58,0-.81,0-.65,0-.17-.55L21.17,27c-4.34-6.32-8.7-12.64-13.11-19.12-.5-.72-.43-.86.59-.88,2.76,0,5.52,0,8.27,0a1.65,1.65,0,0,1,1.6.82c2.6,3.86,5.25,7.68,7.88,11.51.19.28.4.54.65.87L31.49,15c2.13-2.49,4.27-5,6.39-7.47A1.38,1.38,0,0,1,39.11,7c.52,0,1,0,1.68,0,.88,0,.73,0,.19.61L28.42,22.23l13.86,20.2C42.67,43,42.56,43,41.84,43Z" fill="#003d61" fill-rule="evenodd"/></svg>