<svg id="Capa_1" data-name="Capa 1" xmlns="http://www.w3.org/2000/svg" viewBox="0 0 48.25 40"><title>twiter-nav</title><path d="M49,10.25a17.41,17.41,0,0,1-4.14,4.34,1.22,1.22,0,0,0-.42.85c-.06,2.16.06,4.33-.12,6.49a22.82,22.82,0,0,1-4.47,11.68A27,27,0,0,1,24.71,43.84a29.75,29.75,0,0,1-23.5-3c-.45-.26-.48-.4.1-.36A20,20,0,0,0,13.93,37.2c1.42-.92,1.41-1-.25-1.21a10.28,10.28,0,0,1-7.49-6.1c-.16-.45-.1-.59.44-.61l3.23-.08c.43,0,.37-.27,0-.37A9.94,9.94,0,0,1,2.56,21a5.73,5.73,0,0,1-.13-1.16c0-.4,0-.67.43-.52,1.17.36,2.35.66,3.53,1,.37.09.37-.12.11-.31a10.11,10.11,0,0,1-3-12.54c.18-.36.29-.53.65-.1A27.32,27.32,0,0,0,16.91,15.9a69.24,69.24,0,0,0,7.21,1.48c.43.08.47-.15.41-.49a10,10,0,0,1,16.89-9,.8.8,0,0,0,1,.13c1.74-.63,3.46-1.29,5.19-1.94.31-.12.44-.09.3.26a10.13,10.13,0,0,1-3.7,4.49c-.33.23-.25.61.19.49,1.5-.4,3-.8,4.47-1.31.27-.09.39-.09.18.25Z" transform="translate(-0.87 -5)" fill="#003d61" fill-rule="evenodd"/></svg>