<svg id="Capa_1" data-name="Capa 1" xmlns="http://www.w3.org/2000/svg" viewBox="0 0 430.22 428.11"><title>ya-basta</title><path d="M203.66,439C95,428.23,10,336.52,10,225S95,21.77,203.66,11.05V37C109.22,47.59,35.79,127.74,35.79,225s73.43,177.4,167.87,188V439Zm42.67-427.9C355.05,21.76,440,113.48,440,225S355.05,428.23,246.34,438.94V413c94.43-10.61,167.87-90.74,167.88-188S340.77,47.6,246.33,37V11.05Z" transform="translate(-9.89 -10.94)" fill="#094264" stroke="#094264" stroke-linecap="round" stroke-linejoin="round" stroke-width="0.22"/><path d="M155.64,209.08H344.7c1.95,28-30.89,38-31.61,47.28s3.89,12.18-3.41,19l-47,21.3c-3.73,1.69-3.39,1.74-6.56-.84l-19.92-16.26c-3.32-2.71-3.63-2.4-6.26.68l-23.48,27.51c-2.38,2.79-2.45,2.7-6.13,2.71l-41.45.06c-2.93,0-2.85.44-3.37-2.45l-3.69-20c-.7-3.83-.25-3.77-4.06-4.49-4.86-.91-8.07-2-12.49-3-5.08-1.63-5.21-.88-1.26-5.71,6.2-7.58,10.32-14.9,16.52-22.49,2.68-3.28,2.24-4.23,2.06-8.51l-1.29-30.72c-.2-4.75-.35-4,4.37-4Zm40.17,18.72c10.25,0,18.58,6.81,18.58,15.21s-8.33,15.22-18.58,15.22-18.58-6.82-18.58-15.22,8.32-15.2,18.58-15.2Z" transform="translate(-9.89 -10.94)" fill="#094264" stroke="#094264" stroke-linecap="round" stroke-linejoin="round" stroke-width="0.58" fill-rule="evenodd"/><path d="M160.4,345.75q4.13,14.43,8.24,28.88c1.18,4.11,1.2,3.13,5.21,1.9L248,353.76c3.67-1.13,3.3-1.1,4-4.89l4.18-23.66-16.61-12.33c-3.42-2.54-3-3.13-5.76.14q-11.68,13.85-23.4,27.66c-3.1,3.65-3.08,3.38-7.87,3l-37.63-2.9c-6.52-.51-6.29-1.4-4.48,5Z" transform="translate(-9.89 -10.94)" fill="#094264" stroke="#094264" stroke-linecap="round" stroke-linejoin="round" stroke-width="0.57" fill-rule="evenodd"/><path d="M154.58,141.46c58.2,1.12,116.38-1.35,174.59-.32,6.68.12,9.66-.16,9-5.13-1.35-9.46-5.58-18.79-15.27-30.48-18.77-22.62-49.21-32.3-77.77-33.08-22.63-.62-44.64,5.07-62.67,19.17-16,12.48-25.34,28.2-30.24,38.58-4.46,9.45-7.47,11.08,2.4,11.26Z" transform="translate(-9.89 -10.94)" fill="#094264" stroke="#094264" stroke-linecap="round" stroke-linejoin="round" stroke-width="0.57" fill-rule="evenodd"/><polygon points="95.32 156.6 120.6 126.63 100.38 109.57 95.32 156.6 95.32 156.6" fill="#094264" stroke="#094264" stroke-linecap="round" stroke-linejoin="round" stroke-width="0.56" fill-rule="evenodd"/><polygon points="121.99 152.7 331.98 152.7 331.98 173.26 108.91 173.26 121.99 152.7 121.99 152.7" fill="#094264" stroke="#094264" stroke-linecap="round" stroke-linejoin="round" stroke-width="0.6" fill-rule="evenodd"/></svg>