<svg id="Capa_1" data-name="Capa 1" xmlns="http://www.w3.org/2000/svg" viewBox="0 0 32.14 40"><title>youtube-nav</title><path d="M35.05,14.09c0,1.74,0,3.49,0,5.23,0,.16,0,.22-.21.22-.55,0-1.11,0-1.66,0-.16,0-.2,0-.19-.19s0-.5,0-.75a1.13,1.13,0,0,0,0-.18l-.14.13c-.39.31-.75.66-1.17.94a1.5,1.5,0,0,1-1.26.14,1.39,1.39,0,0,1-1-1.26,7.46,7.46,0,0,1-.09-1.16q0-4.15,0-8.32c0-.18.05-.23.23-.23h1.61c.17,0,.21,0,.21.21q0,4.22,0,8.41a.75.75,0,0,0,.21.55.51.51,0,0,0,.66-.09A8.06,8.06,0,0,0,33,17a.47.47,0,0,0,0-.24V8.88c0-.17,0-.23.21-.23h1.63c.19,0,.22.06.22.23C35,10.62,35.05,12.35,35.05,14.09Z" transform="translate(-8.93 -5)" fill="#003d61"/><path d="M17.61,16.54c0-.56,0-1.13,0-1.7a6.44,6.44,0,0,0-.39-2.49C16.45,10,15.72,7.57,15,5.18,14.92,5,15,5,15.11,5H17a.27.27,0,0,1,.2.16c.47,1.74.93,3.48,1.4,5.22,0,.06,0,.17.07.17s0-.11.07-.17l1.38-5.21c0-.14.1-.18.23-.18h1.9c.15,0,.18,0,.14.18-.87,2.74-1.72,5.49-2.58,8.23a1.32,1.32,0,0,0-.06.39q0,2.76,0,5.52c0,.16,0,.22-.21.21-.59,0-1.18,0-1.76,0-.15,0-.2,0-.2-.19C17.61,18.41,17.61,17.48,17.61,16.54Z" transform="translate(-8.93 -5)" fill="#003d61"/><path d="M27.76,17.1A2.63,2.63,0,0,1,26,19.5a2.83,2.83,0,0,1-2.91-.42,2.72,2.72,0,0,1-1-2.08c-.06-1.17-.06-2.35,0-3.52a17.42,17.42,0,0,1,.13-2.61,2.47,2.47,0,0,1,2.11-2.23,2.83,2.83,0,0,1,2.93,1,3.4,3.4,0,0,1,.6,2c0,.85,0,1.7,0,2.54m-2,0h0c0-.84,0-1.68,0-2.52a2.44,2.44,0,0,0-.06-.55.79.79,0,0,0-.79-.68.77.77,0,0,0-.82.63,2.56,2.56,0,0,0-.07.62c0,1.65,0,3.3,0,5a2.67,2.67,0,0,0,.09.69.74.74,0,0,0,.76.58.74.74,0,0,0,.78-.55,2.3,2.3,0,0,0,.1-.69C25.81,15.83,25.8,15,25.8,14.17Z" transform="translate(-8.93 -5)" fill="#003d61"/><path d="M24.49,45c-2.71-.07-5.89-.14-9.07-.26a17.69,17.69,0,0,1-2.72-.3,3.79,3.79,0,0,1-3.07-2.81,14.05,14.05,0,0,1-.5-2.86A62.24,62.24,0,0,1,9,30.69a20.2,20.2,0,0,1,.55-4.58,4,4,0,0,1,2.5-2.92,7.62,7.62,0,0,1,2-.36c5.69-.36,11.39-.37,17.1-.23,1.49,0,3,.1,4.47.2a9.86,9.86,0,0,1,2.31.37,4,4,0,0,1,2.58,3A14.9,14.9,0,0,1,40.89,29,60.83,60.83,0,0,1,41,36.25,22.45,22.45,0,0,1,40.54,41a7.11,7.11,0,0,1-.37,1.13A3.9,3.9,0,0,1,36.6,44.6c-1.78.13-3.56.22-5.35.27C29.16,44.94,27.06,45,24.49,45Zm.85-11.5v7c0,.17,0,.23.22.22h1.55c.14,0,.2,0,.19-.18s0-.43,0-.65c0-.05,0-.11,0-.16l.14.11a7.54,7.54,0,0,0,.94.75A1.68,1.68,0,0,0,31,39.39a7.53,7.53,0,0,0,.15-1.33c0-1.76,0-3.53,0-5.29a7,7,0,0,0-.35-2,1.43,1.43,0,0,0-1.65-1,2.67,2.67,0,0,0-1.7,1l-.13.1a.88.88,0,0,1,0-.16V26.51c0-.18,0-.24-.23-.24-.49,0-1,0-1.49,0-.2,0-.24.07-.24.25Zm-1.59,1.81c0-1.71,0-3.43,0-5.15,0-.18-.05-.23-.23-.23q-.8,0-1.59,0c-.2,0-.24.06-.24.25v7.75c0,.08,0,.17,0,.22a4.26,4.26,0,0,1-.72.75.74.74,0,0,1-.63.08c-.12,0-.2-.33-.2-.51,0-2.77,0-5.53,0-8.3,0-.19-.05-.24-.25-.24q-.8,0-1.59,0c-.2,0-.24.06-.24.25,0,2.73,0,5.46,0,8.19a7.33,7.33,0,0,0,.11,1.24,1.34,1.34,0,0,0,1,1.21,1.8,1.8,0,0,0,1.52-.35c.31-.24.59-.52.88-.79l.1-.08a.58.58,0,0,1,0,.14c0,.26,0,.52,0,.78s0,.2.19.19c.55,0,1.09,0,1.63,0,.21,0,.24-.07.24-.25C23.74,38.75,23.75,37,23.75,35.31Zm8.75,0h0c0,.9-.05,1.81,0,2.7a2.87,2.87,0,0,0,2.89,2.81,2.73,2.73,0,0,0,2.74-1.71A5.58,5.58,0,0,0,38.37,37s-.1-.1-.16-.1h-1.7c-.14,0-.19,0-.19.19,0,.37,0,.74,0,1.11a.84.84,0,0,1-.67.82c-.61.12-1-.24-1.09-.94s0-1.47,0-2.2c0-.2,0-.25.24-.25h3.45c.07,0,.18-.07.18-.11a27.69,27.69,0,0,0-.1-3.29,2.89,2.89,0,0,0-5.76.4C32.45,33.54,32.5,34.44,32.5,35.34ZM13.84,34.5c0,2,0,4,0,5.92,0,.25.07.3.31.3q.79,0,1.59,0c.23,0,.28-.07.28-.29,0-4,0-7.89,0-11.84,0-.21.06-.26.26-.26.64,0,1.28,0,1.92,0,.14,0,.2,0,.19-.19V26.47c0-.14,0-.19-.18-.19H11.75c-.14,0-.18,0-.18.19q0,.84,0,1.68c0,.16.06.19.2.19.62,0,1.24,0,1.86,0,.16,0,.21,0,.21.2C13.83,30.53,13.84,32.52,13.84,34.5Z" transform="translate(-8.93 -5)" fill="#003d61"/><path d="M29.08,38.19c0,.53-.14.76-.55.84a1.47,1.47,0,0,1-1.18-.41.35.35,0,0,1-.05-.21v-3.1h0c0-1,0-2,0-3.06a.48.48,0,0,1,.15-.32,1.25,1.25,0,0,1,.92-.35.61.61,0,0,1,.62.48,2.83,2.83,0,0,1,.1.71" transform="translate(-8.93 -5)" fill="#003d61"/><path d="M35.4,34h-.73c-.06,0-.15-.07-.15-.1a13.1,13.1,0,0,1,0-1.66c.06-.52.35-.7.92-.68a.71.71,0,0,1,.79.73c0,.53,0,1.06,0,1.59,0,0-.09.12-.15.12Z" transform="translate(-8.93 -5)" fill="#003d61"/></svg>